<svg width="368" height="93" viewBox="0 0 368 93" fill="none" xmlns="http://www.w3.org/2000/svg">
<path d="M14.2889 3.53894C14.6163 1.4997 16.376 0 18.4414 0H362.943C365.573 0 367.558 2.38622 367.079 4.9719L351.494 89.0862C351.125 91.0795 349.386 92.5257 347.359 92.5257H4.9349C2.34612 92.5257 0.371962 90.2093 0.782392 87.6532L14.2889 3.53894Z" fill="#E11138"/>
<path d="M83.8966 27.121L74.2023 64.3088H63.2367L57.3036 39.8347L51.1586 64.3088H40.193L30.7636 27.121H40.4578L45.8082 54.1907L52.43 27.121H62.3891L68.746 54.1907L74.1494 27.121H83.8966ZM116.304 49.0522C116.304 49.8998 116.251 50.7827 116.145 51.7009H95.644C95.7853 53.5374 96.368 54.95 97.3922 55.9389C98.4516 56.8924 99.7407 57.3692 101.259 57.3692C103.519 57.3692 105.091 56.4156 105.974 54.5086H115.615C115.121 56.451 114.22 58.1991 112.914 59.753C111.642 61.3069 110.035 62.5253 108.093 63.4082C106.151 64.2911 103.979 64.7326 101.577 64.7326C98.6812 64.7326 96.1031 64.1145 93.8429 62.8785C91.5827 61.6424 89.8169 59.8766 88.5455 57.5811C87.2741 55.2855 86.6384 52.6015 86.6384 49.529C86.6384 46.4565 87.2564 43.7725 88.4925 41.4769C89.7639 39.1814 91.5297 37.4156 93.7899 36.1795C96.0501 34.9435 98.6459 34.3254 101.577 34.3254C104.438 34.3254 106.98 34.9258 109.205 36.1266C111.43 37.3273 113.161 39.0401 114.397 41.265C115.668 43.49 116.304 46.0857 116.304 49.0522ZM107.033 46.6684C107.033 45.1145 106.504 43.8784 105.444 42.9602C104.385 42.042 103.06 41.5829 101.471 41.5829C99.9526 41.5829 98.6635 42.0243 97.6041 42.9072C96.5799 43.7901 95.9442 45.0439 95.697 46.6684H107.033ZM130.141 38.9342C130.989 37.5569 132.207 36.4444 133.797 35.5968C135.386 34.7492 137.205 34.3254 139.253 34.3254C141.69 34.3254 143.897 34.9435 145.875 36.1795C147.852 37.4156 149.406 39.1814 150.536 41.4769C151.702 43.7725 152.285 46.4388 152.285 49.476C152.285 52.5132 151.702 55.1972 150.536 57.5281C149.406 59.8236 147.852 61.6071 145.875 62.8785C143.897 64.1145 141.69 64.7326 139.253 64.7326C137.169 64.7326 135.35 64.3264 133.797 63.5142C132.243 62.6666 131.024 61.5541 130.141 60.1768V64.3088H121.083V25.1079H130.141V38.9342ZM143.067 49.476C143.067 47.2158 142.431 45.45 141.16 44.1786C139.924 42.8719 138.388 42.2186 136.551 42.2186C134.75 42.2186 133.214 42.8719 131.942 44.1786C130.706 45.4853 130.088 47.2688 130.088 49.529C130.088 51.7892 130.706 53.5727 131.942 54.8794C133.214 56.1861 134.75 56.8394 136.551 56.8394C138.352 56.8394 139.889 56.1861 141.16 54.8794C142.431 53.5374 143.067 51.7363 143.067 49.476Z" fill="black"/>
<path d="M155.501 45.6619C155.501 41.989 156.295 38.7223 157.884 35.8617C159.474 32.9658 161.681 30.7232 164.506 29.134C167.367 27.5094 170.598 26.6972 174.2 26.6972C178.615 26.6972 182.394 27.8626 185.537 30.1934C188.68 32.5243 190.781 35.7028 191.841 39.7288H181.882C181.14 38.1749 180.081 36.9918 178.703 36.1795C177.361 35.3673 175.825 34.9611 174.095 34.9611C171.305 34.9611 169.044 35.9323 167.314 37.8747C165.583 39.8171 164.718 42.4128 164.718 45.6619C164.718 48.911 165.583 51.5067 167.314 53.4491C169.044 55.3915 171.305 56.3627 174.095 56.3627C175.825 56.3627 177.361 55.9565 178.703 55.1443C180.081 54.332 181.14 53.1489 181.882 51.595H191.841C190.781 55.621 188.68 58.7995 185.537 61.1303C182.394 63.4259 178.615 64.5736 174.2 64.5736C170.598 64.5736 167.367 63.779 164.506 62.1898C161.681 60.5653 159.474 58.3227 157.884 55.4621C156.295 52.6015 155.501 49.3348 155.501 45.6619ZM195.587 49.476C195.587 46.4388 196.152 43.7725 197.282 41.4769C198.448 39.1814 200.019 37.4156 201.997 36.1795C203.975 34.9435 206.182 34.3254 208.619 34.3254C210.702 34.3254 212.521 34.7492 214.075 35.5968C215.664 36.4444 216.883 37.5569 217.73 38.9342V34.7492H226.789V64.3088H217.73V60.1238C216.847 61.5011 215.611 62.6136 214.022 63.4612C212.468 64.3088 210.649 64.7326 208.566 64.7326C206.164 64.7326 203.975 64.1145 201.997 62.8785C200.019 61.6071 198.448 59.8236 197.282 57.5281C196.152 55.1972 195.587 52.5132 195.587 49.476ZM217.73 49.529C217.73 47.2688 217.095 45.4853 215.823 44.1786C214.587 42.8719 213.069 42.2186 211.267 42.2186C209.466 42.2186 207.93 42.8719 206.659 44.1786C205.423 45.45 204.805 47.2158 204.805 49.476C204.805 51.7363 205.423 53.5374 206.659 54.8794C207.93 56.1861 209.466 56.8394 211.267 56.8394C213.069 56.8394 214.587 56.1861 215.823 54.8794C217.095 53.5727 217.73 51.7892 217.73 49.529ZM242.401 39.6758C243.46 38.0513 244.785 36.7799 246.374 35.8617C247.963 34.9081 249.729 34.4314 251.671 34.4314V44.0197H249.182C246.921 44.0197 245.226 44.5141 244.096 45.503C242.966 46.4565 242.401 48.1517 242.401 50.5885V64.3088H233.342V34.7492H242.401V39.6758ZM265.06 39.6758C266.119 38.0513 267.444 36.7799 269.033 35.8617C270.622 34.9081 272.388 34.4314 274.33 34.4314V44.0197H271.84C269.58 44.0197 267.885 44.5141 266.755 45.503C265.625 46.4565 265.06 48.1517 265.06 50.5885V64.3088H256.001V34.7492H265.06V39.6758ZM292.115 64.7326C289.22 64.7326 286.606 64.1145 284.275 62.8785C281.98 61.6424 280.161 59.8766 278.819 57.5811C277.512 55.2855 276.859 52.6015 276.859 49.529C276.859 46.4918 277.53 43.8255 278.872 41.5299C280.214 39.199 282.05 37.4156 284.381 36.1795C286.712 34.9435 289.325 34.3254 292.221 34.3254C295.117 34.3254 297.731 34.9435 300.062 36.1795C302.392 37.4156 304.229 39.199 305.571 41.5299C306.913 43.8255 307.584 46.4918 307.584 49.529C307.584 52.5662 306.895 55.2502 305.518 57.5811C304.176 59.8766 302.322 61.6424 299.956 62.8785C297.625 64.1145 295.011 64.7326 292.115 64.7326ZM292.115 56.8924C293.846 56.8924 295.312 56.2567 296.512 54.9853C297.748 53.714 298.366 51.8952 298.366 49.529C298.366 47.1628 297.766 45.344 296.565 44.0727C295.4 42.8013 293.952 42.1656 292.221 42.1656C290.456 42.1656 288.99 42.8013 287.825 44.0727C286.659 45.3087 286.076 47.1275 286.076 49.529C286.076 51.8952 286.641 53.714 287.772 54.9853C288.937 56.2567 290.385 56.8924 292.115 56.8924ZM324.415 64.7326C321.837 64.7326 319.541 64.2911 317.528 63.4082C315.515 62.5253 313.926 61.3246 312.76 59.806C311.595 58.2521 310.942 56.5216 310.8 54.6145H319.753C319.859 55.6387 320.336 56.4686 321.183 57.1043C322.031 57.74 323.073 58.0578 324.309 58.0578C325.439 58.0578 326.304 57.8459 326.905 57.4221C327.54 56.963 327.858 56.3803 327.858 55.674C327.858 54.8264 327.417 54.2084 326.534 53.8199C325.651 53.3961 324.221 52.937 322.243 52.4426C320.124 51.9482 318.358 51.4361 316.945 50.9063C315.533 50.3413 314.314 49.476 313.29 48.3106C312.266 47.1098 311.754 45.503 311.754 43.49C311.754 41.7948 312.213 40.2585 313.131 38.8812C314.085 37.4686 315.462 36.3561 317.263 35.5438C319.1 34.7316 321.272 34.3254 323.779 34.3254C327.487 34.3254 330.401 35.2436 332.52 37.0801C334.674 38.9165 335.91 41.3533 336.228 44.3905H327.858C327.717 43.3663 327.258 42.5541 326.481 41.9537C325.739 41.3533 324.75 41.0531 323.514 41.0531C322.455 41.0531 321.642 41.265 321.077 41.6888C320.512 42.0773 320.23 42.6247 320.23 43.331C320.23 44.1786 320.671 44.8143 321.554 45.2381C322.472 45.6619 323.885 46.0857 325.792 46.5095C327.982 47.0745 329.765 47.6396 331.142 48.2046C332.52 48.7344 333.721 49.6173 334.745 50.8534C335.804 52.0541 336.352 53.6786 336.387 55.727C336.387 57.4575 335.892 59.0114 334.904 60.3887C333.95 61.7307 332.555 62.7902 330.719 63.5671C328.918 64.3441 326.816 64.7326 324.415 64.7326Z" fill="white"/>
</svg>
